<?xml version="1.0" encoding="utf-8"?>
<!-- Generator: Adobe Illustrator 14.0.0, SVG Export Plug-In . SVG Version: 6.00 Build 43363)  -->
<!DOCTYPE svg PUBLIC "-//W3C//DTD SVG 1.1//EN" "http://www.w3.org/Graphics/SVG/1.1/DTD/svg11.dtd">
<svg version="1.1" id="Layer_1" focusable="false" xmlns="http://www.w3.org/2000/svg" xmlns:xlink="http://www.w3.org/1999/xlink"
	 x="0px" y="0px" width="800px" height="600px" viewBox="0 0 800 600" enable-background="new 0 0 800 600" xml:space="preserve">
<path fill="#FFFFFF" d="M152.286,154.688h371.428c7.891,0,14.286-8.394,14.286-18.75V89.063c0-10.356-6.396-18.75-14.286-18.75
	H152.286c-7.89,0-14.286,8.394-14.286,18.75v46.875C138,146.293,144.396,154.688,152.286,154.688z M148.107,342.188h301.786
	c6.411,0,11.606-8.395,11.606-18.75v-46.875c0-10.356-5.195-18.75-11.606-18.75H148.107c-6.411,0-11.607,8.394-11.607,18.75v46.875
	C136.5,333.793,141.696,342.188,148.107,342.188z M156.25,529.688h487.5c10.355,0,18.75-8.395,18.75-18.75v-46.875
	c0-10.355-8.395-18.75-18.75-18.75h-487.5c-10.356,0-18.75,8.395-18.75,18.75v46.875C137.5,521.293,145.894,529.688,156.25,529.688z
	"/>
</svg>
