<?xml version="1.0" encoding="utf-8"?>
<!-- Generator: Adobe Illustrator 14.0.0, SVG Export Plug-In . SVG Version: 6.00 Build 43363)  -->
<!DOCTYPE svg PUBLIC "-//W3C//DTD SVG 1.1//EN" "http://www.w3.org/Graphics/SVG/1.1/DTD/svg11.dtd">
<svg version="1.1" id="group-1" xmlns="http://www.w3.org/2000/svg" xmlns:xlink="http://www.w3.org/1999/xlink" x="0px" y="0px"
	 width="800px" height="600px" viewBox="0 0 800 600" enable-background="new 0 0 800 600" xml:space="preserve">
<g id="group">
	<path id="path" fill="#FFFFFF" stroke="#000000" d="M279.736,144.72h-55.2l268.152,280.944h55.199L279.736,144.72z"/>
	<path id="path-2" fill="#FFFFFF" stroke="#000000" d="M700,300C700,134.314,565.686,0,400,0S100,134.314,100,300
		s134.314,300,300,300c0.064,0,0.128,0,0.192,0c63.096,0.227,124.623-19.654,175.655-56.76l7.704-5.28h-67.319l-1.225,0.408
		c-35.643,17.306-74.787,26.182-114.408,25.944c-145.988,0.344-264.614-117.724-264.959-263.712
		C135.296,154.612,253.364,35.986,399.353,35.642c145.988-0.345,264.614,117.723,264.959,263.711c0,0.215,0.001,0.431,0.001,0.647
		c-0.021,40.302-9.152,80.077-26.713,116.352H483.376l37.32,38.929h136.319l0.816-1.632c0-0.408,0.408-0.408,0.408-0.816
		c3.24-5.28,6.096-10.944,8.928-16.632l2.4-4.8c2.04-3.648,3.647-7.704,5.279-11.353l2.04-4.056
		C692.092,379.208,699.943,339.802,700,300z"/>
	<path id="path-3" fill="#FFFFFF" stroke="#000000" d="M520.672,144.72L224.536,455.256h55.2L575.44,144.72H520.672z"/>
</g>
</svg>
